<svg id="Layer_1" data-name="Layer 1" xmlns="http://www.w3.org/2000/svg" viewBox="0 0 122.88 76.75"><defs><style>.cls-1{fill:#fff;}</style></defs><path class="cls-1" d="M69.93,14a7.1,7.1,0,0,1,2,.28,6.6,6.6,0,0,1,1.29.53V13.63A6.6,6.6,0,0,1,73.7,11a6.75,6.75,0,0,1,3.72-3.7A6.55,6.55,0,0,1,80,6.77h0a6.86,6.86,0,0,1,3.36.92V6.85A7,7,0,0,1,84,4.23,6.9,6.9,0,0,1,85.46,2h0A6.65,6.65,0,0,1,87.68.52,6.84,6.84,0,0,1,95.13,2a7,7,0,0,1,1.49,2.23,6.73,6.73,0,0,1,.52,2.62v.86a7.11,7.11,0,0,1,1.33-.57,6.71,6.71,0,0,1,4.63.22,6.86,6.86,0,0,1,4.24,6.33V44.13q.06.4.09.81t0,.84v1.09c.72-.68,1.39-1.35,1.84-1.8l.41-.4A10.28,10.28,0,0,1,113.86,42a7,7,0,0,1,4.35,0,6.35,6.35,0,0,1,1.56.73,6.07,6.07,0,0,1,1.31,1.11,6.8,6.8,0,0,1,1,1.43,6.72,6.72,0,0,1,.6,1.62,7.92,7.92,0,0,1-.4,4.81,11.9,11.9,0,0,1-3.19,4.4l-.07.07c-.75.75-1.75,1.83-2.93,3.09-4.93,5.29-12.89,13.81-18,15.86-4.14,1.65-10.48,2.1-16.41,1.29-5.3-.72-10.3-2.45-13.15-5.25l2.55-2.53c2.32,2.25,6.64,3.65,11.26,4.24,5.3.67,11,.28,14.41-1.09,4.53-1.8,12.92-10.86,17.4-15.67,1-1.09,1.81-2,2.34-2.49l.17-.17h0a8.26,8.26,0,0,0,2.14-2.83,4.51,4.51,0,0,0,.33-2.85,4.4,4.4,0,0,0-.29-.79,3.87,3.87,0,0,0-.46-.68h0a3,3,0,0,0-.58-.49,2.67,2.67,0,0,0-.7-.34h0a3.68,3.68,0,0,0-2.34.11,7.12,7.12,0,0,0-2.5,1.7c-.42.43-1.57,1.57-2.71,2.64-.57.54-1.15,1.07-1.69,1.5a8.85,8.85,0,0,1-1.22.89,1.56,1.56,0,0,1-.47.22,1.81,1.81,0,0,1-.51.08.34.34,0,0,1-.17-.05L104.39,52a.33.33,0,0,1-.18-.27l-.35-5.87V13.75a3.26,3.26,0,0,0-.24-1.24,3.42,3.42,0,0,0-.71-1,3.17,3.17,0,0,0-4.53,0,3.29,3.29,0,0,0-1,2.29V39.3a.32.32,0,0,1-.32.32H93.85a.32.32,0,0,1-.32-.32V6.86a3.09,3.09,0,0,0-.25-1.24,2.92,2.92,0,0,0-.7-1,3,3,0,0,0-1.06-.71,3.3,3.3,0,0,0-2.47,0,3.5,3.5,0,0,0-1,.71,3.32,3.32,0,0,0-.71,1,3.26,3.26,0,0,0-.24,1.24V39.3a.32.32,0,0,1-.32.32H86a15.73,15.73,0,0,0-2-3.4c-.24-.33-.5-.65-.77-1V13.63A3.54,3.54,0,0,0,83,12.39a3.42,3.42,0,0,0-.71-1.05,3.24,3.24,0,0,0-5.53,2.3v17a16.67,16.67,0,0,0-3.61-1V20.86a3.08,3.08,0,0,0-.25-1.23,3.17,3.17,0,0,0-1.76-1.76,3.18,3.18,0,0,0-2.47,0,2.92,2.92,0,0,0-1,.7A3,3,0,0,0,67,19.63a3.25,3.25,0,0,0-.24,1.23v9.07a13.82,13.82,0,0,0-3.61,1.41V20.86A6.89,6.89,0,0,1,69.93,14ZM61.24,41c2.57-2.68,4.37-5,8.32-5.44,7.42-.85,14.25,6.74,10.5,14.22a33.06,33.06,0,0,1-5.64,7.15c-2.64,2.73-5.55,5.41-7.6,7.44L61.25,69.9l-4.61-4.44C51.1,60.1,42.06,53.38,41.76,45.06c-.2-5.83,4.4-9.57,9.69-9.5,4.73.06,6.72,2.41,9.79,5.41ZM51,14.29A7.11,7.11,0,0,1,53,14a6.73,6.73,0,0,1,2.62.52,6.86,6.86,0,0,1,4.24,6.33v10.9a13.33,13.33,0,0,0-3.62-1.6v-9.3A3.25,3.25,0,0,0,56,19.62a3,3,0,0,0-.71-1.06,2.92,2.92,0,0,0-1-.7,3.24,3.24,0,0,0-3.51.69h0a3.29,3.29,0,0,0-1,2.29v8.77a16.45,16.45,0,0,0-3.61.76V13.63a3.24,3.24,0,0,0-5.53-2.29,3.42,3.42,0,0,0-.71,1.05,3.3,3.3,0,0,0-.24,1.24V34.54a14.45,14.45,0,0,0-3,5.08h-.45a.32.32,0,0,1-.32-.32V6.86a3.26,3.26,0,0,0-.24-1.24,3.32,3.32,0,0,0-.71-1,3.5,3.5,0,0,0-1-.71,3.3,3.3,0,0,0-2.47,0,3,3,0,0,0-1.06.71,3.47,3.47,0,0,0-.7,1h0a3.09,3.09,0,0,0-.25,1.24V39.31a.32.32,0,0,1-.32.32H26a.32.32,0,0,1-.32-.32V13.71a3.09,3.09,0,0,0-.25-1.24,2.89,2.89,0,0,0-.69-1h0a3.17,3.17,0,0,0-1-.7h0a3.26,3.26,0,0,0-1.23-.25,2.94,2.94,0,0,0-2.24,1,3.42,3.42,0,0,0-.71,1,3.26,3.26,0,0,0-.24,1.24V45.82L19,51.69a.34.34,0,0,1-.18.27l-1.15.56a.25.25,0,0,1-.17,0,1.81,1.81,0,0,1-.51-.08,1.68,1.68,0,0,1-.47-.22A8.92,8.92,0,0,1,15,51.35c-.54-.43-1.12-1-1.69-1.49-1.14-1.08-2.29-2.22-2.71-2.65a7,7,0,0,0-2.5-1.7,3.64,3.64,0,0,0-2.35-.12,2.67,2.67,0,0,0-.7.34,2.84,2.84,0,0,0-.59.5h0a3.87,3.87,0,0,0-.46.68,4.4,4.4,0,0,0-.29.79A4.51,4.51,0,0,0,4,50.55a8.26,8.26,0,0,0,2.14,2.83h0l.17.17c.53.53,1.34,1.4,2.34,2.48C13.16,60.85,21.56,69.9,26.1,71.71c3.45,1.37,9.11,1.76,14.41,1.09,4.43-.57,8.58-1.87,11-4l1,.89,1.66,1.6c-2.89,2.66-7.75,4.32-12.91,5-5.93.81-12.27.36-16.42-1.29-5.13-2-13.09-10.57-18-15.86-1.18-1.14-2.18-2.25-2.93-3l-.07-.07A11.9,11.9,0,0,1,.6,51.67a7.92,7.92,0,0,1-.4-4.81,6.79,6.79,0,0,1,.6-1.63,7,7,0,0,1,1-1.42A6.07,6.07,0,0,1,3.11,42.7,6.43,6.43,0,0,1,4.67,42,7.11,7.11,0,0,1,9,42a10.33,10.33,0,0,1,4.14,2.65l.41.4c.45.45,1.12,1.12,1.84,1.8V45.78q0-.42,0-.84a3.72,3.72,0,0,1,.09-.81V13.7a6.88,6.88,0,0,1,4.24-6.33,6.68,6.68,0,0,1,4.62-.22,6.58,6.58,0,0,1,1.34.57V6.86a6.73,6.73,0,0,1,.52-2.62A7.09,7.09,0,0,1,27.75,2a6.82,6.82,0,0,1,9.64,0h0a6.85,6.85,0,0,1,2,4.85v.84a6.86,6.86,0,0,1,1.36-.6,6.76,6.76,0,0,1,2-.32h0a6.69,6.69,0,0,1,2.61.53A6.9,6.9,0,0,1,49.18,11a6.68,6.68,0,0,1,.52,2.61V14.8A6.06,6.06,0,0,1,51,14.29Z" transform="translate(0 0)"/></svg>