<svg id="Layer_1" data-name="Layer 1" xmlns="http://www.w3.org/2000/svg" viewBox="0 0 122.88 118.73"><defs><style>.cls-1{fill:#fff;fill-rule:evenodd;}</style></defs><path class="cls-1" d="M41.67,53.39H41a29.16,29.16,0,0,0-4.41.33h0a29.94,29.94,0,0,0-4.26,1h0A29.18,29.18,0,0,0,27,56.93L40.66,78.5,52.5,55.8l0,0a29.16,29.16,0,0,0-8.34-2.2h0c-.83-.09-1.66-.15-2.51-.17ZM54.2,49.23h50a4.87,4.87,0,0,1,3.45,1.44h0a4.88,4.88,0,0,1,1.43,3.45h0a4.9,4.9,0,0,1-1.43,3.45h0A4.88,4.88,0,0,1,104.2,59H93.55l7.38,27.61a2.18,2.18,0,0,1,.37.8L106.87,107l13.51-2.08a2.18,2.18,0,0,1,.65,4.31l-15.41,2.37h0A2.18,2.18,0,0,1,103.2,110L97.53,90.08H76.21A36,36,0,1,1,30.63,48.22l-11-43.07H17.92v1.2H3.18A3.19,3.19,0,0,1,0,3.18H0A3.19,3.19,0,0,1,3.18,0H17.92V.78h3.39A2.18,2.18,0,0,1,23.44,2.5L34.88,47.22a36.18,36.18,0,0,1,19.32,2ZM70.13,79.66v0c0-.12,0-.24,0-.36v-.12c0-.12,0-.23,0-.34l0-.13c0-.11,0-.22,0-.33l0-.13-.06-.35v0q-.1-.63-.24-1.26v0c0-.12,0-.24-.08-.36l0-.09c0-.12-.05-.23-.08-.35l0-.1-.09-.35,0-.09c0-.12-.06-.24-.1-.36l0,0q-.17-.6-.36-1.2v0l-.11-.32,0-.14c0-.1-.07-.2-.1-.3l0-.14-.11-.3,0-.12-.12-.31,0-.08c-.14-.36-.3-.72-.45-1.08l0-.06-.14-.3-.06-.13L67.41,70l-.07-.14-.13-.27-.08-.15c0-.09-.09-.18-.14-.26l-.06-.11c-.17-.33-.35-.65-.53-1L66.35,68c0-.09-.1-.18-.16-.27l-.08-.14L66,67.36l-.08-.14c0-.08-.1-.17-.16-.25l-.09-.14c0-.08-.1-.16-.16-.24l-.08-.13L65,65.94,65,65.86l-.16-.22-.11-.15c0-.07-.11-.14-.16-.22l-.11-.15-.16-.21-.12-.16L64,64.57l-.14-.17-.15-.19c-.05-.07-.11-.13-.16-.19l-.23-.27-.18-.22L63,63.36l-.17-.19L62.68,63l-.18-.19-.15-.16-.17-.18L62,62.33l-.18-.19L61.71,62l-.22-.22-.2-.19-.24-.23-.14-.13-.19-.18-.16-.15-.19-.17-.15-.13L60,60.42l-.15-.13-.22-.18L59.5,60l-.34-.27h0l0,0-.35-.27-.12-.09-.27-.2L58.26,59,58,58.85l-.14-.1-.27-.19-.11-.08-.3-.2-.1-.07-.75-.48,0,.05L44.39,80.63l25.76-.11h0c0-.29,0-.57-.06-.86ZM65.61,56.48h38.58a2.37,2.37,0,0,0,1.67-.69h0a2.35,2.35,0,0,0,.69-1.67h0a2.36,2.36,0,0,0-.7-1.67h0a2.35,2.35,0,0,0-1.67-.69H59.32a35.46,35.46,0,0,1,6.29,4.73Zm4.6,28.34h0l-25.43.11,13.6,21.4A29.3,29.3,0,0,0,70.21,84.82ZM54.7,108.63,41,87.1,29.27,109.63a29.37,29.37,0,0,0,25.43-1Zm-29.24-1L37.29,85l-25.57.11a29.31,29.31,0,0,0,13.74,22.55ZM11.68,80.78l25.24-.11-13.6-21.4A29.33,29.33,0,0,0,11.68,80.78Z"/></svg>