<svg height='100px' width='100px'  fill="#FFFFFF" xmlns="http://www.w3.org/2000/svg" xmlns:xlink="http://www.w3.org/1999/xlink" version="1.1" x="0px" y="0px" viewBox="0 0 100 92.316" enable-background="new 0 0 100 92.316" xml:space="preserve"><g><path d="M55.922,16.375c4.395-0.88,7.252-5.205,6.363-9.648c-0.893-4.451-5.19-7.33-9.587-6.45   c-4.404,0.882-7.25,5.189-6.358,9.643C47.228,14.36,51.518,17.255,55.922,16.375z"></path><path d="M71.55,41.576h-0.419c-1.051,0-2.062,0.145-3.03,0.395l-13.934-4.75l-4.583-18.049c-0.586-2.682-3.397-5.753-7.629-5.882   c-1.383-0.042-3.663,0.601-4.807,1.822L21.081,31.02c-2.641,2.347-2.766,5.7-2.785,8.047v46.636c0,1.878,0.652,3.448,1.957,4.719   c1.305,1.261,2.855,1.894,4.652,1.894c1.879,0,3.468-0.633,4.773-1.894c1.305-1.271,1.959-2.841,1.959-4.719V44.746l11.585-11.675   l3.896,8.872c0.026,0.06,0.067,0.109,0.098,0.168c0.053,0.106,0.111,0.206,0.172,0.306c0.104,0.167,0.215,0.325,0.34,0.474   c0.074,0.087,0.148,0.175,0.229,0.257c0.146,0.146,0.306,0.275,0.472,0.399c0.082,0.06,0.156,0.126,0.242,0.18   c0.261,0.164,0.536,0.305,0.834,0.406l10.944,3.733c-1.552,2.554-2.46,5.729-2.46,9.259v32.968c0,0.99,0.802,1.794,1.794,1.794   c0.989,0,1.791-0.804,1.791-1.794V69.082h19.534v21.011c0,0.99,0.802,1.794,1.791,1.794c0.992,0,1.794-0.804,1.794-1.794V57.125   C84.692,48.261,79.043,41.576,71.55,41.576z M66.139,49.806c0.432,0.147,0.869,0.217,1.3,0.217c1.675,0,3.238-1.054,3.81-2.727   c0.243-0.714,0.26-1.445,0.113-2.131h0.188c5.173,0,9.131,4.637,9.519,10.942H61.612c0.171-2.748,1.019-5.174,2.354-7.042   L66.139,49.806z M61.573,65.496v-5.801h19.534v5.801H61.573z"></path></g></svg>