<svg id="Layer_1" data-name="Layer 1" xmlns="http://www.w3.org/2000/svg" viewBox="0 0 429.42 433.2"><defs><style>.cls-1{fill:#fff;}</style></defs><g id="Sun_and_moon" data-name="Sun and moon"><circle class="cls-1" cx="144.38" cy="144.37" r="65.63"/><path class="cls-1" d="M185.67,87.56A13.12,13.12,0,0,0,198.8,74.44V52.56a13.13,13.13,0,0,0-26.25,0h0V74.44A13.11,13.11,0,0,0,185.67,87.56Z" transform="translate(-41.3 -39.44)"/><path class="cls-1" d="M99.05,115.75a13.12,13.12,0,0,0,18.56-18.56h0L102.14,81.73a13.12,13.12,0,0,0-18.56,18.56h0Z" transform="translate(-41.3 -39.44)"/><path class="cls-1" d="M89.42,183.81A13.12,13.12,0,0,0,76.3,170.69H54.42a13.13,13.13,0,0,0,0,26.25H76.3A13.13,13.13,0,0,0,89.42,183.81Z" transform="translate(-41.3 -39.44)"/><path class="cls-1" d="M99.05,251.87,83.58,267.34a13.12,13.12,0,1,0,18.56,18.56l15.47-15.47a13.12,13.12,0,1,0-18.56-18.56Z" transform="translate(-41.3 -39.44)"/><path class="cls-1" d="M185.67,280.06a13.12,13.12,0,0,0-13.12,13.13v21.87a13.13,13.13,0,1,0,26.25,0h0V293.19A13.13,13.13,0,0,0,185.67,280.06Z" transform="translate(-41.3 -39.44)"/><path class="cls-1" d="M272.29,251.87a13.12,13.12,0,1,0-18.56,18.56L269.2,285.9a13.12,13.12,0,1,0,18.56-18.56Z" transform="translate(-41.3 -39.44)"/><path class="cls-1" d="M330.05,183.81a13.12,13.12,0,0,0-13.13-13.12H295.05a13.13,13.13,0,1,0,0,26.25h21.87A13.13,13.13,0,0,0,330.05,183.81Z" transform="translate(-41.3 -39.44)"/><path class="cls-1" d="M263,119.6a13.09,13.09,0,0,0,9.28-3.85l15.47-15.46A13.12,13.12,0,1,0,269.2,81.73L253.73,97.19A13.13,13.13,0,0,0,263,119.6Z" transform="translate(-41.3 -39.44)"/><path class="cls-1" d="M456.94,401.67a64,64,0,0,1-15,7.21c-19.64,6.53-41.88,2.95-58.14-9.86A68.54,68.54,0,0,1,373,388.19c-12.81-16.27-16.38-38.5-9.85-58.15a63.72,63.72,0,0,1,7.21-15,8.8,8.8,0,0,0-10.12-13.3,87.52,87.52,0,1,0,110,110,8.8,8.8,0,0,0-13.3-10.12Z" transform="translate(-41.3 -39.44)"/></g></svg>