<?xml version="1.0" encoding="UTF-8" standalone="no"?>
<!DOCTYPE svg PUBLIC "-//W3C//DTD SVG 1.1//EN" "http://www.w3.org/Graphics/SVG/1.1/DTD/svg11.dtd">
<svg width="100%" height="100%" viewBox="0 0 60 60" version="1.1" xmlns="http://www.w3.org/2000/svg" xmlns:xlink="http://www.w3.org/1999/xlink" xml:space="preserve" xmlns:serif="http://www.serif.com/" style="fill-rule:evenodd;clip-rule:evenodd;stroke-linejoin:round;stroke-miterlimit:2;">
    <path d="M53.961,11.98C53.442,11.996 52.948,12.213 52.586,12.586L22,43.172L9.414,30.586C9.037,30.193 8.516,29.971 7.971,29.971C6.874,29.971 5.971,30.874 5.971,31.971C5.971,32.516 6.193,33.037 6.586,33.414L20.586,47.414C21.362,48.19 22.638,48.19 23.414,47.414L55.414,15.414C55.801,15.038 56.02,14.52 56.02,13.98C56.02,12.883 55.117,11.98 54.02,11.98C54,11.98 53.981,11.98 53.961,11.98Z" style="fill:rgb(240,133,51);fill-rule:nonzero;"/>
</svg>
